<svg id="flogo1" xmlns="http://www.w3.org/2000/svg" width="37.954" height="46.33" viewBox="0 0 37.954 46.33">
  <g id="Group_13243" data-name="Group 13243" transform="translate(1.487)">
    <path id="Path_12515" data-name="Path 12515" d="M399.776,502.034a6.441,6.441,0,0,0-.69.69c-.679.706-1.371,1.4-2.05,2.1a.811.811,0,0,1-.656.271c-.64-.018-1.28-.011-1.92,0a.568.568,0,0,1-.451-.175c-1.177-1.186-2.363-2.364-3.542-3.549s-2.351-2.377-3.523-3.568c-.118-.12-.216-.26-.323-.39a.647.647,0,0,1-.128-.515q-.005-4.965,0-9.93a.647.647,0,0,1,.128-.515,2.779,2.779,0,0,1,.292-.364q3.15-3.166,6.3-6.338.717-.723,1.421-1.459a.516.516,0,0,1,.41-.173q5.036.007,10.072,0a.749.749,0,0,1,.587.254c1.444,1.547,2.981,3,4.465,4.51q1.58,1.605,3.171,3.2a.9.9,0,0,1,.276.618c.039.534.008,1.064.015,1.595s.022,1.041.026,1.562c.009,1.385,0,2.769.005,4.154.006,1.057-.1,2.112-.054,3.169a.836.836,0,0,1-.315.643q-1.694,1.687-3.381,3.38c-1.151,1.157-2.306,2.311-3.441,3.485a1.228,1.228,0,0,1-1.005.406c-.548-.021-1.1-.01-1.646,0a.675.675,0,0,1-.529-.2q-1.5-1.545-3-3.088a.52.52,0,0,1-.06-.117c.094-.074.2-.045.3-.045.914,0,1.829-.01,2.743,0,.418.006.832-.045,1.248-.056a.422.422,0,0,0,.3-.154c1.191-1.193,2.4-2.371,3.568-3.581.5-.516,1-1.026,1.51-1.535a.671.671,0,0,0,.242-.543c-.015-.273.017-.547.017-.821,0-2.26,0-4.52.01-6.78a1,1,0,0,0-.353-.75q-1.553-1.55-3.1-3.1c-.8-.806-1.6-1.618-2.393-2.427a.768.768,0,0,0-.757-.306.676.676,0,0,1-.518.12q-2.931.006-5.862,0a.731.731,0,0,1-.52-.121.589.589,0,0,0-.6.191c-.658.652-1.32,1.3-1.96,1.971-.207.216-.412.435-.623.647-1.013,1.018-2.025,2.036-3.048,3.044a1.072,1.072,0,0,0-.346.83q.017,3.661,0,7.323a.978.978,0,0,0,.307.761c1.59,1.584,3.182,3.167,4.739,4.784a1.576,1.576,0,0,0,1.235.5q1.625,0,3.25,0a.956.956,0,0,1,.4.034Z" transform="translate(-382.155 -478.061)" fill="#f1f1f1"/>
    <path id="Path_12516" data-name="Path 12516" d="M453.288,561.4c-3.054-3.136-6.137-6.18-9.188-9.25.044-.149.162-.219.251-.308q3.618-3.639,7.236-7.28c.44-.445.868-.9,1.311-1.346.074-.074.154-.141.23-.212a.264.264,0,0,1,.386-.005c.09.074.172.16.255.243,2.3,2.314,4.612,4.621,6.9,6.947.54.548,1.076,1.1,1.615,1.65.037.037.07.077.107.114.116.118.163.232,0,.351a1.275,1.275,0,0,0-.139.137q-2.881,2.881-5.762,5.763c-.608.61-1.189,1.247-1.811,1.843C454.221,560.494,453.768,560.944,453.288,561.4Z" transform="translate(-435.356 -537.903)" fill="#b1b7bb"/>
    <path id="Path_12517" data-name="Path 12517" d="M333.689,497.274c.1.106.186.216.287.317,1.447,1.449,2.9,2.892,4.341,4.346.743.749,1.467,1.517,2.2,2.277a.651.651,0,0,1,.064.093c-.049.13-.157.074-.235.074-1.33,0-2.661,0-3.991.008a1.373,1.373,0,0,1-.761-.241,1.394,1.394,0,0,0-.287-.317q-2.465-2.468-4.931-4.934a1.3,1.3,0,0,1-.493-.768c-.01-.1-.011-.208-.011-.313q0-6.878-.006-13.756a1.074,1.074,0,0,1,.35-.827q1.9-1.872,3.772-3.765c.553-.555,1.113-1.1,1.639-1.684a1.352,1.352,0,0,1,1.039-.428c.458-.018.909.067,1.366.062.836-.009,1.672,0,2.508,0a.366.366,0,0,1,.233.032c0,.119-.106.168-.174.236q-3.369,3.391-6.743,6.779c-.074.074-.145.151-.222.222a1.04,1.04,0,0,0-.345.828q.018,5.467,0,10.934A.867.867,0,0,0,333.689,497.274Z" transform="translate(-329.866 -477.353)" fill="#f1f1f1"/>
    <path id="Path_12518" data-name="Path 12518" d="M655.4,478.447l-.273-.33c.057-.112.161-.062.242-.063,1.385,0,2.769,0,4.154-.006a.753.753,0,0,1,.587.239q2.749,2.765,5.514,5.515a1.167,1.167,0,0,1,.368.9q-.017,6.936,0,13.873a1.041,1.041,0,0,1-.323.793c-1.747,1.8-3.536,3.555-5.295,5.343a.982.982,0,0,1-.787.317c-1.293-.016-2.586-.006-3.88-.007h-.4c.018-.194.143-.26.227-.347,2.232-2.311,4.523-4.564,6.8-6.835a.874.874,0,0,0,.287-.681q-.015-5.428,0-10.855a1.348,1.348,0,0,0-.422-1.033q-3.055-3.1-6.136-6.164a4.483,4.483,0,0,0-.661-.661Z" transform="translate(-630.227 -477.991)" fill="#f1f1f1"/>
  </g>
  <g id="Group_13242" data-name="Group 13242" transform="translate(0 38.68)">
    <path id="Path_12512" data-name="Path 12512" d="M446.281,885.739q-.014.778-.027,1.556a.629.629,0,0,1-.444.638,3.327,3.327,0,0,1-1.263.306c-2.2-.021-4.4.043-6.595-.035a2.171,2.171,0,0,0-1.93.948,2.156,2.156,0,0,1-2.25.662c-.116-.04-.275-.058-.284-.221-.007-.127.112-.193.206-.25a4.763,4.763,0,0,0,1.139-.913,1.741,1.741,0,0,0,.328-1.991,1.169,1.169,0,0,1,.811-1.432.628.628,0,0,1,.548.265,2,2,0,0,1,.441.863.52.52,0,0,0,.593.441c2.166-.006,4.332,0,6.5,0,.257,0,.5-.018.505-.373.01-.378-.227-.414-.513-.415q-2.907,0-5.814,0c-.978,0-1.157-.206-.935-1.169a2.575,2.575,0,0,1,1.8-2.044,4.185,4.185,0,0,1,1.333-.205c.977.006,1.954,0,2.931,0a.875.875,0,0,1,.753.263l-.008-.007a.716.716,0,0,1,.39.278c.117.2.245.411.133.64-.1.206-.331.182-.522.184-1.254.013-2.508,0-3.762.008a1.485,1.485,0,0,0-1.048.284c.053.153.166.1.251.107,1.74.057,3.48.121,5.223.107A1.367,1.367,0,0,1,446.281,885.739Z" transform="translate(-427.105 -882.367)" fill="#b1b7bb"/>
    <path id="Path_12513" data-name="Path 12513" d="M644.344,901.794a.106.106,0,0,0,.032-.08,4.614,4.614,0,0,1,1.146-.081c.2-.028.27.147.273.326.014.974.03,1.948.01,2.922-.012.6-.266.844-.878.861a1.582,1.582,0,0,1-1.364-.357c-.139-.151-.3-.106-.415.048a.94.94,0,0,1-.832.313c-.277,0-.553,0-.83,0a1.548,1.548,0,0,1-1.139-.3.658.658,0,0,0-.987.066,3.727,3.727,0,0,1-2.721.014,1.424,1.424,0,0,1-.561-.83,4.8,4.8,0,0,1-.092-.773c-.015-.212.116-.529-.152-.6-.252-.071-.421.2-.563.4a1.494,1.494,0,0,0-.143,1.311c.046.2.189.431-.016.592-.228.179-.468.032-.681-.085a1.653,1.653,0,0,1-1.031-1.312l.006.01a1.931,1.931,0,0,1,0-1.07l-.006.01a1.694,1.694,0,0,1,1.955-1.531c1.058.016,2.117,0,3.175,0,1.148,0,1.549.456,1.429,1.607-.071.678.04.809.711.837,1.279.055,1.279.055,1.279-1.21,0-.293,0-.586,0-.879,0-.12.017-.278.145-.268a7.907,7.907,0,0,1,1.156-.011c.249.055.22.293.194.488-.066.487-.007.976-.034,1.463-.018.324.132.426.439.425s.449-.077.453-.412A11.91,11.91,0,0,1,644.344,901.794Z" transform="translate(-607.861 -899.79)" fill="#b1b7bb"/>
    <path id="Path_12514" data-name="Path 12514" d="M368.314,898.542a2.238,2.238,0,0,1-1.118-.626,2.369,2.369,0,0,1,1.438-3.839.314.314,0,0,1-.108.277c-.121.153-.243.305-.358.463a1.326,1.326,0,0,0-.125,1.55,1.478,1.478,0,0,0,1.383.833c.831-.018,1.662,0,2.493-.005.418,0,.417-.006.418-.437s0-.437-.419-.44c-.6,0-1.206,0-1.809,0-.1,0-.2,0-.293,0-.136,0-.211-.055-.216-.2a2.852,2.852,0,0,1,.535-2.116,2.256,2.256,0,0,1,1.605-.808c.389-.028.782,0,1.173-.007a.653.653,0,0,1,.62.316c.093.163.211.367.113.552-.088.166-.294.073-.446.078-.5.018-1.009.041-1.513.029a.637.637,0,0,0-.624.378c-.2.369-.14.474.286.476.521,0,1.043-.006,1.564,0a.8.8,0,0,1,.894.767,6.344,6.344,0,0,1,.056,1.459,1.556,1.556,0,0,1-.645,1.158c-.21.173-.466.114-.7.157q-1.908-.051-3.816,0a.264.264,0,0,1-.291,0Z" transform="translate(-366.65 -892.145)" fill="#b1b7bb"/>
    <path id="Path_12519" data-name="Path 12519" d="M446.4,890.979c.308-.282.511-.445.684-.635.153-.168.255-.127.387.015.7.751.7.425.009,1.172-.166.179-.274.147-.431-.012C446.867,891.336,446.653,891.187,446.4,890.979Z" transform="translate(-438.783 -889.483)" fill="#b1b7bb"/>
    <path id="Path_12520" data-name="Path 12520" d="M677.8,917.327c0,.578.034.529-.522.532-.081,0-.163,0-.244,0-.159.009-.247-.054-.244-.223,0-.1,0-.2,0-.293,0-.533,0-.534.522-.531S677.8,916.764,677.8,917.327Z" transform="translate(-647.168 -913.522)" fill="#242424"/>
    <path id="Path_12521" data-name="Path 12521" d="M706.215,947.223c.178.189.359.374.533.567.111.123.205.129.32,0,.143-.155.3-.3.444-.451.115-.125.214-.125.319,0a.315.315,0,0,0,.035.034c.646.586.64.645-.024,1.213-.154.131-.244.1-.362-.026-.143-.154-.3-.3-.446-.448a.15.15,0,0,0-.247,0c-.136.139-.283.268-.411.415-.142.163-.256.212-.43.025-.7-.757-.685-.44-.025-1.142A.523.523,0,0,1,706.215,947.223Z" transform="translate(-673.067 -941.029)" fill="#b1b7bb"/>
    <path id="Path_12522" data-name="Path 12522" d="M745.944,948.7c-.06.069-.109.132-.165.189-.627.653-.684.648-1.245-.054-.091-.114-.078-.177.009-.283.57-.694.612-.7,1.24-.043C745.838,948.563,745.886,948.627,745.944,948.7Z" transform="translate(-708.389 -941.751)" fill="#b1b7bb"/>
    <path id="Path_12523" data-name="Path 12523" d="M563.971,903.682c.233-.269.461-.542.7-.8a1.342,1.342,0,0,1,1.127-.472c.308.019.619,0,.928,0a1.614,1.614,0,0,1,1.629,1.426,6.086,6.086,0,0,1-.031,1.365A1.387,1.387,0,0,1,567,906.323c-.309,0-.621.023-.928-.006a.662.662,0,0,0-.655.313c-.038.053-.081.1-.12.154a2.483,2.483,0,0,1-2.684.96c.124-.233.365-.314.547-.457a2.092,2.092,0,0,0,.971-1.609,4.212,4.212,0,0,0-.18-1.49.592.592,0,0,1,.021-.507Z" transform="translate(-543.9 -900.488)" fill="#b1b7bb"/>
    <path id="Path_12524" data-name="Path 12524" d="M596.687,917.781c-.049,0-.1,0-.146,0-.362-.01-.373-.011-.369-.39.008-.736-.121-.645.679-.668.24-.007.313.109.348.3a1.681,1.681,0,0,1,.022.193C597.26,917.782,597.26,917.782,596.687,917.781Z" transform="translate(-574.249 -913.442)" fill="#242424"/>
  </g>
</svg>
