<svg id="flogo3" xmlns="http://www.w3.org/2000/svg" width="46.234" height="48.096" viewBox="0 0 46.234 48.096">
  <g id="Group_13235" data-name="Group 13235">
    <path id="Path_12498" data-name="Path 12498" d="M564.935,1168.17c-.123.591-.228,1.187-.373,1.773a8.161,8.161,0,0,1-6.98,6.277,11.957,11.957,0,0,1-6.682-1.209,34.416,34.416,0,0,1-8.275-5.471c-.2-.175-.2-.288-.019-.465.563-.565,1.124-1.133,1.67-1.715.262-.281.4-.007.542.108a44.764,44.764,0,0,0,4.8,3.428,16.466,16.466,0,0,0,4.2,2.013,3.723,3.723,0,0,0,4.543-3.357c.092-1.945-1.08-3.015-2.648-3.644a3.1,3.1,0,0,0-.723-.241c-.4-.051-.5-.238-.492-.626.03-1.852.03-3.7.035-5.556,0-.224-.015-.4.3-.419a10.068,10.068,0,0,1,6.8,1.7,8.344,8.344,0,0,1,3.109,5.071,2.318,2.318,0,0,0,.185.8V1167c-.078.08-.035.18-.047.271.012.091-.032.192.047.271Z" transform="translate(-518.701 -1152.258)" fill="#f1f1f1"/>
    <path id="Path_12501" data-name="Path 12501" d="M315.369,1087.348c0,.963,0,1.927,0,2.89,0,.231-.014.4-.308.44a15.87,15.87,0,0,0-6.945,3.223,33.871,33.871,0,0,0-5.261,4.93,37.743,37.743,0,0,1-7.921,7.069,13.2,13.2,0,0,1-5.553,2.076,9.216,9.216,0,0,1-6.826-1.983,7.5,7.5,0,0,1-3.048-5.681,9.193,9.193,0,0,1,1.479-6.083,7.764,7.764,0,0,1,5.09-3.122,12.847,12.847,0,0,1,8.567,1.455,23.548,23.548,0,0,1,3.271,2.06c.234.172.27.3.1.543-.37.528-.716,1.073-1.05,1.625-.149.246-.244.283-.506.1a19.018,19.018,0,0,0-5.163-2.594,8.4,8.4,0,0,0-4.832-.272,5.607,5.607,0,0,0-3.968,4.474c-.754,3.039,2.1,6.333,5.156,6.291a11.04,11.04,0,0,0,6.232-2.06,20.063,20.063,0,0,0,4.681-4.9c1.311-1.817,2.325-3.82,3.582-5.669a21.171,21.171,0,0,1,6.71-6.641,10.074,10.074,0,0,1,5.645-1.554l.361.019c.331.016.481.134.466.519-.037.947-.012,1.9-.012,2.845Z" transform="translate(-279.476 -1083.955)" fill="#f1f1f1"/>
  </g>
  <g id="Group_13238" data-name="Group 13238" transform="translate(2.356 36.869)">
    <g id="Group_13237" data-name="Group 13237" transform="translate(0 0.316)">
      <path id="Path_12502" data-name="Path 12502" d="M361.03,1420.4c-.935,0-1.871,0-2.806,0a2.346,2.346,0,0,1-1.452-.413,1.4,1.4,0,0,1-.637-1.2c0-1.144-.049-2.289-.1-3.432-.015-.331.1-.413.416-.414.839,0,.838-.018.839.845,0,.687-.012,1.375,0,2.061.019.844.309,1.116,1.152,1.117,1.737,0,3.474.011,5.211,0,.817,0,1.154-.376,1.1-1.17-.037-.553-.268-.788-.825-.793-1.011-.009-2.024-.02-3.035.006-.388.01-.581-.079-.508-.5a.672.672,0,0,0,0-.228c-.1-.541.1-.722.665-.69.951.053,1.908.007,2.862.016a2.012,2.012,0,0,1,2.129,1.993,3.774,3.774,0,0,1-.17,1.408,1.831,1.831,0,0,1-1.869,1.384C363.015,1420.412,362.023,1420.4,361.03,1420.4Z" transform="translate(-356.033 -1412.063)" fill="#b1b7bb"/>
      <path id="Path_12505" data-name="Path 12505" d="M449.946,1404a5.24,5.24,0,0,1,2.273.445,3.664,3.664,0,0,1,2.207,4.194c-.042.2-.143.227-.31.247-1.1.134-1.173.077-1.215-1.005a2.44,2.44,0,0,0-2.416-2.4c-.4-.022-.8-.024-1.2-.01-.253.009-.351-.088-.323-.331a.832.832,0,0,0,0-.114C448.934,1404,448.934,1404,449.946,1404Z" transform="translate(-438.299 -1402.377)" fill="#b1b7bb"/>
      <path id="Path_12508" data-name="Path 12508" d="M440.78,1451.06c.025-.106.027-.125.034-.142a1.969,1.969,0,0,1,2.235-1.25,31.708,31.708,0,0,0,3.712.017c.416-.009.479.157.432.5-.118.87-.112.871-1.016.871Z" transform="translate(-431.063 -1442.794)" fill="#b1b7bb"/>
      <path id="Path_12509" data-name="Path 12509" d="M396.574,1389.87a3.812,3.812,0,0,0,.571,0c.531-.081.732.082.706.662-.021.475-.092.728-.623.632a2.312,2.312,0,0,0-.4,0c-1.237,0-1.244,0-1.384,1.246-.024.217-.1.283-.309.308-1,.12-1.062.073-1.061-.918A1.7,1.7,0,0,1,396,1389.87Z" transform="translate(-389.712 -1389.846)" fill="#b1b7bb"/>
    </g>
    <g id="Group_13236" data-name="Group 13236" transform="translate(17.549 0)">
      <path id="Path_12503" data-name="Path 12503" d="M585.35,1387.1c-1.363,1.432-2.6,2.752-3.866,4.044-.3.307-.3.467.009.764.7.678,1.351,1.4,2.015,2.111a.76.76,0,0,0,.636.292c.533-.025,1.068,0,1.6-.013.654-.014.92-.289.938-.949.006-.248,0-.5,0-.744a.683.683,0,0,1,1.031-.578c.161.082.12.222.122.346,0,.553.02,1.108,0,1.66a1.589,1.589,0,0,1-1.513,1.508c-.954.026-1.908,0-2.863.013a.627.627,0,0,1-.487-.235c-1.071-1.088-2.151-2.167-3.223-3.254-.434-.441-.431-.71,0-1.164,1.059-1.1,2.139-2.179,3.176-3.3a1.354,1.354,0,0,1,1.242-.507A11.531,11.531,0,0,0,585.35,1387.1Z" transform="translate(-571.36 -1387.086)" fill="#b1b7bb"/>
      <path id="Path_12504" data-name="Path 12504" d="M520.052,1433.64c-3.161,0-6.16.005-9.159,0a1.837,1.837,0,0,1-1.788-1.738c-.019-.439.03-.882-.012-1.317-.047-.487.142-.581.6-.6.576-.028.688.166.676.7-.036,1.585,0,1.6,1.569,1.592q3.181-.008,6.361-.03a.842.842,0,0,1,.749.3C519.331,1432.9,519.655,1433.212,520.052,1433.64Z" transform="translate(-509.086 -1425.058)" fill="#b1b7bb"/>
      <path id="Path_12506" data-name="Path 12506" d="M663.419,1432.589c-.63,0-1.26-.017-1.888.007-.333.013-.424-.105-.415-.425.035-1.275-.159-1,1.013-1.026.877-.017,1.755.005,2.632-.006.767-.01,1.057-.316,1.06-1.081a3.472,3.472,0,0,0,0-.572c-.09-.546.108-.692.667-.7.585-.006.77.153.7.723-.049.395,0,.8-.012,1.2a1.956,1.956,0,0,1-1.92,1.876C664.64,1432.594,664.03,1432.589,663.419,1432.589Z" transform="translate(-643.684 -1424.006)" fill="#b1b7bb"/>
      <path id="Path_12507" data-name="Path 12507" d="M662.678,1390.514c0,.935-.012,1.87.006,2.805.007.331-.058.465-.434.466-1.141,0-1.141.022-1.141-1.127,0-1.66.01-3.32-.007-4.98,0-.377.068-.536.494-.531,1.081.012,1.082-.01,1.082,1.077Z" transform="translate(-643.672 -1387.14)" fill="#b1b7bb"/>
      <path id="Path_12510" data-name="Path 12510" d="M617.951,1417.478a.978.978,0,0,1-1,.952,1,1,0,0,1-.948-1.011.975.975,0,1,1,1.947.059Z" transform="translate(-603.744 -1413.065)" fill="#b1b7bb"/>
      <path id="Path_12511" data-name="Path 12511" d="M681.053,1469.966a.957.957,0,0,1-.983-.959.979.979,0,0,1,.962-.988.96.96,0,0,1,1.005.994A.944.944,0,0,1,681.053,1469.966Z" transform="translate(-660.464 -1458.74)" fill="#b1b7bb"/>
    </g>
  </g>
</svg>
